<svg width="1440" height="644" viewBox="0 0 1440 644" fill="none" xmlns="http://www.w3.org/2000/svg">
<path opacity="0.87" d="M0 -40.668L53.3333 11.9987" stroke="#E1E1E1" stroke-opacity="0.08" stroke-width="2" stroke-linecap="square"/>
<path opacity="0.87" d="M53.333 -40.668L106.666 11.9987" stroke="#E1E1E1" stroke-opacity="0.08" stroke-width="2" stroke-linecap="square"/>
<path opacity="0.87" d="M160 -40.668L106.667 11.9987" stroke="#E1E1E1" stroke-opacity="0.08" stroke-width="2" stroke-linecap="square"/>
<path opacity="0.87" d="M213.333 -40.668L160 11.9987" stroke="#E1E1E1" stroke-opacity="0.08" stroke-width="2" stroke-linecap="square"/>
<path opacity="0.87" d="M266.667 -40.668L213.334 11.9987" stroke="#E1E1E1" stroke-opacity="0.08" stroke-width="2" stroke-linecap="square"/>
<path opacity="0.87" d="M266.667 -40.668L320 11.9987" stroke="#E1E1E1" stroke-opacity="0.08" stroke-width="2" stroke-linecap="square"/>
<path opacity="0.87" d="M373.333 -40.668L320 11.9987" stroke="#E1E1E1" stroke-opacity="0.08" stroke-width="2" stroke-linecap="square"/>
<path opacity="0.87" d="M373.333 -40.668L426.666 11.9987" stroke="#E1E1E1" stroke-opacity="0.08" stroke-width="2" stroke-linecap="square"/>
<path opacity="0.87" d="M426.667 -40.668L480 11.9987" stroke="#E1E1E1" stroke-opacity="0.08" stroke-width="2" stroke-linecap="square"/>
<path opacity="0.87" d="M533.333 -40.668L480 11.9987" stroke="#E1E1E1" stroke-opacity="0.08" stroke-width="2" stroke-linecap="square"/>
<path opacity="0.87" d="M586.666 -40.668L533.333 11.9987" stroke="#E1E1E1" stroke-opacity="0.08" stroke-width="2" stroke-linecap="square"/>
<path opacity="0.87" d="M586.667 -40.668L640 11.9987" stroke="#E1E1E1" stroke-opacity="0.08" stroke-width="2" stroke-linecap="square"/>
<path opacity="0.87" d="M693.333 -40.668L640 11.9987" stroke="#E1E1E1" stroke-opacity="0.08" stroke-width="2" stroke-linecap="square"/>
<path opacity="0.87" d="M746.666 -40.668L693.333 11.9987" stroke="#E1E1E1" stroke-opacity="0.08" stroke-width="2" stroke-linecap="square"/>
<path opacity="0.87" d="M800 -40.668L746.667 11.9987" stroke="#E1E1E1" stroke-opacity="0.08" stroke-width="2" stroke-linecap="square"/>
<path opacity="0.87" d="M800 -40.668L853.333 11.9987" stroke="#E1E1E1" stroke-opacity="0.08" stroke-width="2" stroke-linecap="square"/>
<path opacity="0.87" d="M853.333 -40.668L906.666 11.9987" stroke="#E1E1E1" stroke-opacity="0.08" stroke-width="2" stroke-linecap="square"/>
<path opacity="0.87" d="M906.667 -40.668L960 11.9987" stroke="#E1E1E1" stroke-opacity="0.08" stroke-width="2" stroke-linecap="square"/>
<path opacity="0.87" d="M1013.33 -40.668L960 11.9987" stroke="#E1E1E1" stroke-opacity="0.08" stroke-width="2" stroke-linecap="square"/>
<path opacity="0.87" d="M1066.67 -40.668L1013.33 11.9987" stroke="#E1E1E1" stroke-opacity="0.08" stroke-width="2" stroke-linecap="square"/>
<path opacity="0.87" d="M1066.67 -40.668L1120 11.9987" stroke="#E1E1E1" stroke-opacity="0.08" stroke-width="2" stroke-linecap="square"/>
<path opacity="0.87" d="M1173.33 -40.668L1120 11.9987" stroke="#E1E1E1" stroke-opacity="0.08" stroke-width="2" stroke-linecap="square"/>
<path opacity="0.87" d="M1226.67 -40.668L1173.33 11.9987" stroke="#E1E1E1" stroke-opacity="0.08" stroke-width="2" stroke-linecap="square"/>
<path opacity="0.87" d="M1226.67 -40.668L1280 11.9987" stroke="#E1E1E1" stroke-opacity="0.08" stroke-width="2" stroke-linecap="square"/>
<path opacity="0.87" d="M1333.33 -40.668L1280 11.9987" stroke="#E1E1E1" stroke-opacity="0.08" stroke-width="2" stroke-linecap="square"/>
<path opacity="0.87" d="M1386.67 -40.668L1333.33 11.9987" stroke="#E1E1E1" stroke-opacity="0.08" stroke-width="2" stroke-linecap="square"/>
<path opacity="0.87" d="M1440 -40.668L1386.67 11.9987" stroke="#E1E1E1" stroke-opacity="0.08" stroke-width="2" stroke-linecap="square"/>
<path opacity="0.81" d="M53.3333 12L0 64.6667" stroke="#E1E1E1" stroke-opacity="0.08" stroke-width="2" stroke-linecap="square"/>
<path opacity="0.81" d="M53.333 12L106.666 64.6667" stroke="#E1E1E1" stroke-opacity="0.08" stroke-width="2" stroke-linecap="square"/>
<path opacity="0.81" d="M106.667 12L160 64.6667" stroke="#E1E1E1" stroke-opacity="0.08" stroke-width="2" stroke-linecap="square"/>
<path opacity="0.81" d="M213.334 12L160 64.6667" stroke="#E1E1E1" stroke-opacity="0.08" stroke-width="2" stroke-linecap="square"/>
<path opacity="0.81" d="M266.667 12L213.334 64.6667" stroke="#E1E1E1" stroke-opacity="0.08" stroke-width="2" stroke-linecap="square"/>
<path opacity="0.81" d="M320 12L266.667 64.6667" stroke="#E1E1E1" stroke-opacity="0.08" stroke-width="2" stroke-linecap="square"/>
<path opacity="0.81" d="M373.333 12L320 64.6667" stroke="#E1E1E1" stroke-opacity="0.08" stroke-width="2" stroke-linecap="square"/>
<path opacity="0.81" d="M426.667 12L373.333 64.6667" stroke="#E1E1E1" stroke-opacity="0.08" stroke-width="2" stroke-linecap="square"/>
<path opacity="0.81" d="M480 12L426.667 64.6667" stroke="#E1E1E1" stroke-opacity="0.08" stroke-width="2" stroke-linecap="square"/>
<path opacity="0.81" d="M480 12L533.333 64.6667" stroke="#E1E1E1" stroke-opacity="0.08" stroke-width="2" stroke-linecap="square"/>
<path opacity="0.81" d="M586.666 12L533.333 64.6667" stroke="#E1E1E1" stroke-opacity="0.08" stroke-width="2" stroke-linecap="square"/>
<path opacity="0.81" d="M586.667 12L640 64.6667" stroke="#E1E1E1" stroke-opacity="0.08" stroke-width="2" stroke-linecap="square"/>
<path opacity="0.81" d="M640 12L693.333 64.6667" stroke="#E1E1E1" stroke-opacity="0.08" stroke-width="2" stroke-linecap="square"/>
<path opacity="0.81" d="M746.666 12L693.333 64.6667" stroke="#E1E1E1" stroke-opacity="0.08" stroke-width="2" stroke-linecap="square"/>
<path opacity="0.81" d="M800 12L746.667 64.6667" stroke="#E1E1E1" stroke-opacity="0.08" stroke-width="2" stroke-linecap="square"/>
<path opacity="0.81" d="M800 12L853.333 64.6667" stroke="#E1E1E1" stroke-opacity="0.08" stroke-width="2" stroke-linecap="square"/>
<path opacity="0.81" d="M853.333 12L906.666 64.6667" stroke="#E1E1E1" stroke-opacity="0.08" stroke-width="2" stroke-linecap="square"/>
<path opacity="0.81" d="M906.667 12L960 64.6667" stroke="#E1E1E1" stroke-opacity="0.08" stroke-width="2" stroke-linecap="square"/>
<path opacity="0.81" d="M960 12L1013.33 64.6667" stroke="#E1E1E1" stroke-opacity="0.08" stroke-width="2" stroke-linecap="square"/>
<path opacity="0.81" d="M1066.67 12L1013.33 64.6667" stroke="#E1E1E1" stroke-opacity="0.08" stroke-width="2" stroke-linecap="square"/>
<path opacity="0.81" d="M1120 12L1066.67 64.6667" stroke="#E1E1E1" stroke-opacity="0.08" stroke-width="2" stroke-linecap="square"/>
<path opacity="0.81" d="M1173.33 12L1120 64.6667" stroke="#E1E1E1" stroke-opacity="0.08" stroke-width="2" stroke-linecap="square"/>
<path opacity="0.81" d="M1226.67 12L1173.33 64.6667" stroke="#E1E1E1" stroke-opacity="0.08" stroke-width="2" stroke-linecap="square"/>
<path opacity="0.81" d="M1280 12L1226.67 64.6667" stroke="#E1E1E1" stroke-opacity="0.08" stroke-width="2" stroke-linecap="square"/>
<path opacity="0.81" d="M1280 12L1333.33 64.6667" stroke="#E1E1E1" stroke-opacity="0.08" stroke-width="2" stroke-linecap="square"/>
<path opacity="0.81" d="M1333.33 12L1386.67 64.6667" stroke="#E1E1E1" stroke-opacity="0.08" stroke-width="2" stroke-linecap="square"/>
<path opacity="0.81" d="M1386.67 12L1440 64.6667" stroke="#E1E1E1" stroke-opacity="0.08" stroke-width="2" stroke-linecap="square"/>
<path opacity="0.74" d="M0 64.668L53.3333 117.335" stroke="#E1E1E1" stroke-opacity="0.08" stroke-width="2" stroke-linecap="square"/>
<path opacity="0.74" d="M53.333 64.668L106.666 117.335" stroke="#E1E1E1" stroke-opacity="0.08" stroke-width="2" stroke-linecap="square"/>
<path opacity="0.74" d="M160 64.668L106.667 117.335" stroke="#E1E1E1" stroke-opacity="0.08" stroke-width="2" stroke-linecap="square"/>
<path opacity="0.74" d="M213.333 64.668L160 117.335" stroke="#E1E1E1" stroke-opacity="0.08" stroke-width="2" stroke-linecap="square"/>
<path opacity="0.74" d="M266.667 64.668L213.334 117.335" stroke="#E1E1E1" stroke-opacity="0.08" stroke-width="2" stroke-linecap="square"/>
<path opacity="0.74" d="M320 64.668L266.667 117.335" stroke="#E1E1E1" stroke-opacity="0.08" stroke-width="2" stroke-linecap="square"/>
<path opacity="0.74" d="M320 64.668L373.333 117.335" stroke="#E1E1E1" stroke-opacity="0.08" stroke-width="2" stroke-linecap="square"/>
<path opacity="0.74" d="M373.333 64.668L426.666 117.335" stroke="#E1E1E1" stroke-opacity="0.08" stroke-width="2" stroke-linecap="square"/>
<path opacity="0.74" d="M426.667 64.668L480 117.335" stroke="#E1E1E1" stroke-opacity="0.08" stroke-width="2" stroke-linecap="square"/>
<path opacity="0.74" d="M480 64.668L533.333 117.335" stroke="#E1E1E1" stroke-opacity="0.08" stroke-width="2" stroke-linecap="square"/>
<path opacity="0.74" d="M586.666 64.668L533.333 117.335" stroke="#E1E1E1" stroke-opacity="0.08" stroke-width="2" stroke-linecap="square"/>
<path opacity="0.74" d="M640 64.668L586.667 117.335" stroke="#E1E1E1" stroke-opacity="0.08" stroke-width="2" stroke-linecap="square"/>
<path opacity="0.74" d="M693.333 64.668L640 117.335" stroke="#E1E1E1" stroke-opacity="0.08" stroke-width="2" stroke-linecap="square"/>
<path opacity="0.74" d="M746.666 64.668L693.333 117.335" stroke="#E1E1E1" stroke-opacity="0.08" stroke-width="2" stroke-linecap="square"/>
<path opacity="0.74" d="M800 64.668L746.667 117.335" stroke="#E1E1E1" stroke-opacity="0.08" stroke-width="2" stroke-linecap="square"/>
<path opacity="0.74" d="M800 64.668L853.333 117.335" stroke="#E1E1E1" stroke-opacity="0.08" stroke-width="2" stroke-linecap="square"/>
<path opacity="0.74" d="M853.333 64.668L906.666 117.335" stroke="#E1E1E1" stroke-opacity="0.08" stroke-width="2" stroke-linecap="square"/>
<path opacity="0.74" d="M906.667 64.668L960 117.335" stroke="#E1E1E1" stroke-opacity="0.08" stroke-width="2" stroke-linecap="square"/>
<path opacity="0.74" d="M1013.33 64.668L960 117.335" stroke="#E1E1E1" stroke-opacity="0.08" stroke-width="2" stroke-linecap="square"/>
<path opacity="0.74" d="M1013.33 64.668L1066.67 117.335" stroke="#E1E1E1" stroke-opacity="0.08" stroke-width="2" stroke-linecap="square"/>
<path opacity="0.74" d="M1120 64.668L1066.67 117.335" stroke="#E1E1E1" stroke-opacity="0.08" stroke-width="2" stroke-linecap="square"/>
<path opacity="0.74" d="M1173.33 64.668L1120 117.335" stroke="#E1E1E1" stroke-opacity="0.08" stroke-width="2" stroke-linecap="square"/>
<path opacity="0.74" d="M1173.33 64.668L1226.67 117.335" stroke="#E1E1E1" stroke-opacity="0.08" stroke-width="2" stroke-linecap="square"/>
<path opacity="0.74" d="M1226.67 64.668L1280 117.335" stroke="#E1E1E1" stroke-opacity="0.08" stroke-width="2" stroke-linecap="square"/>
<path opacity="0.74" d="M1333.33 64.668L1280 117.335" stroke="#E1E1E1" stroke-opacity="0.08" stroke-width="2" stroke-linecap="square"/>
<path opacity="0.74" d="M1386.67 64.668L1333.33 117.335" stroke="#E1E1E1" stroke-opacity="0.08" stroke-width="2" stroke-linecap="square"/>
<path opacity="0.74" d="M1386.67 64.668L1440 117.335" stroke="#E1E1E1" stroke-opacity="0.08" stroke-width="2" stroke-linecap="square"/>
<path opacity="0.68" d="M53.3333 117.332L0 169.999" stroke="#E1E1E1" stroke-opacity="0.08" stroke-width="2" stroke-linecap="square"/>
<path opacity="0.68" d="M53.333 117.332L106.666 169.999" stroke="#E1E1E1" stroke-opacity="0.08" stroke-width="2" stroke-linecap="square"/>
<path opacity="0.68" d="M160 117.332L106.667 169.999" stroke="#E1E1E1" stroke-opacity="0.08" stroke-width="2" stroke-linecap="square"/>
<path opacity="0.68" d="M160 117.332L213.333 169.999" stroke="#E1E1E1" stroke-opacity="0.08" stroke-width="2" stroke-linecap="square"/>
<path opacity="0.68" d="M266.667 117.332L213.334 169.999" stroke="#E1E1E1" stroke-opacity="0.08" stroke-width="2" stroke-linecap="square"/>
<path opacity="0.68" d="M320 117.332L266.667 169.999" stroke="#E1E1E1" stroke-opacity="0.08" stroke-width="2" stroke-linecap="square"/>
<path opacity="0.68" d="M373.333 117.332L320 169.999" stroke="#E1E1E1" stroke-opacity="0.08" stroke-width="2" stroke-linecap="square"/>
<path opacity="0.68" d="M373.333 117.332L426.666 169.999" stroke="#E1E1E1" stroke-opacity="0.08" stroke-width="2" stroke-linecap="square"/>
<path opacity="0.68" d="M480 117.332L426.667 169.999" stroke="#E1E1E1" stroke-opacity="0.08" stroke-width="2" stroke-linecap="square"/>
<path opacity="0.68" d="M533.333 117.332L480 169.999" stroke="#E1E1E1" stroke-opacity="0.08" stroke-width="2" stroke-linecap="square"/>
<path opacity="0.68" d="M586.666 117.332L533.333 169.999" stroke="#E1E1E1" stroke-opacity="0.08" stroke-width="2" stroke-linecap="square"/>
<path opacity="0.68" d="M586.667 117.332L640 169.999" stroke="#E1E1E1" stroke-opacity="0.08" stroke-width="2" stroke-linecap="square"/>
<path opacity="0.68" d="M640 117.332L693.333 169.999" stroke="#E1E1E1" stroke-opacity="0.08" stroke-width="2" stroke-linecap="square"/>
<path opacity="0.68" d="M693.333 117.332L746.666 169.999" stroke="#E1E1E1" stroke-opacity="0.08" stroke-width="2" stroke-linecap="square"/>
<path opacity="0.68" d="M800 117.332L746.667 169.999" stroke="#E1E1E1" stroke-opacity="0.08" stroke-width="2" stroke-linecap="square"/>
<path opacity="0.68" d="M853.333 117.332L800 169.999" stroke="#E1E1E1" stroke-opacity="0.08" stroke-width="2" stroke-linecap="square"/>
<path opacity="0.68" d="M906.666 117.332L853.333 169.999" stroke="#E1E1E1" stroke-opacity="0.08" stroke-width="2" stroke-linecap="square"/>
<path opacity="0.68" d="M960 117.332L906.667 169.999" stroke="#E1E1E1" stroke-opacity="0.08" stroke-width="2" stroke-linecap="square"/>
<path opacity="0.68" d="M1013.33 117.332L960 169.999" stroke="#E1E1E1" stroke-opacity="0.08" stroke-width="2" stroke-linecap="square"/>
<path opacity="0.68" d="M1013.33 117.332L1066.67 169.999" stroke="#E1E1E1" stroke-opacity="0.08" stroke-width="2" stroke-linecap="square"/>
<path opacity="0.68" d="M1120 117.332L1066.67 169.999" stroke="#E1E1E1" stroke-opacity="0.08" stroke-width="2" stroke-linecap="square"/>
<path opacity="0.68" d="M1120 117.332L1173.33 169.999" stroke="#E1E1E1" stroke-opacity="0.08" stroke-width="2" stroke-linecap="square"/>
<path opacity="0.68" d="M1226.67 117.332L1173.33 169.999" stroke="#E1E1E1" stroke-opacity="0.08" stroke-width="2" stroke-linecap="square"/>
<path opacity="0.68" d="M1280 117.332L1226.67 169.999" stroke="#E1E1E1" stroke-opacity="0.08" stroke-width="2" stroke-linecap="square"/>
<path opacity="0.68" d="M1333.33 117.332L1280 169.999" stroke="#E1E1E1" stroke-opacity="0.08" stroke-width="2" stroke-linecap="square"/>
<path opacity="0.68" d="M1333.33 117.332L1386.67 169.999" stroke="#E1E1E1" stroke-opacity="0.08" stroke-width="2" stroke-linecap="square"/>
<path opacity="0.68" d="M1386.67 117.332L1440 169.999" stroke="#E1E1E1" stroke-opacity="0.08" stroke-width="2" stroke-linecap="square"/>
<path opacity="0.62" d="M53.3333 170L0 222.667" stroke="#E1E1E1" stroke-opacity="0.08" stroke-width="2" stroke-linecap="square"/>
<path opacity="0.62" d="M106.666 170L53.333 222.667" stroke="#E1E1E1" stroke-opacity="0.08" stroke-width="2" stroke-linecap="square"/>
<path opacity="0.62" d="M160 170L106.667 222.667" stroke="#E1E1E1" stroke-opacity="0.08" stroke-width="2" stroke-linecap="square"/>
<path opacity="0.62" d="M213.334 170L160 222.667" stroke="#E1E1E1" stroke-opacity="0.08" stroke-width="2" stroke-linecap="square"/>
<path opacity="0.62" d="M213.334 170L266.667 222.667" stroke="#E1E1E1" stroke-opacity="0.08" stroke-width="2" stroke-linecap="square"/>
<path opacity="0.62" d="M320 170L266.667 222.667" stroke="#E1E1E1" stroke-opacity="0.08" stroke-width="2" stroke-linecap="square"/>
<path opacity="0.62" d="M373.333 170L320 222.667" stroke="#E1E1E1" stroke-opacity="0.08" stroke-width="2" stroke-linecap="square"/>
<path opacity="0.62" d="M373.333 170L426.667 222.667" stroke="#E1E1E1" stroke-opacity="0.08" stroke-width="2" stroke-linecap="square"/>
<path opacity="0.62" d="M426.667 170L480 222.667" stroke="#E1E1E1" stroke-opacity="0.08" stroke-width="2" stroke-linecap="square"/>
<path opacity="0.62" d="M480 170L533.333 222.667" stroke="#E1E1E1" stroke-opacity="0.08" stroke-width="2" stroke-linecap="square"/>
<path opacity="0.62" d="M533.333 170L586.666 222.667" stroke="#E1E1E1" stroke-opacity="0.08" stroke-width="2" stroke-linecap="square"/>
<path opacity="0.62" d="M640 170L586.667 222.667" stroke="#E1E1E1" stroke-opacity="0.08" stroke-width="2" stroke-linecap="square"/>
<path opacity="0.62" d="M640 170L693.333 222.667" stroke="#E1E1E1" stroke-opacity="0.08" stroke-width="2" stroke-linecap="square"/>
<path opacity="0.62" d="M746.666 170L693.333 222.667" stroke="#E1E1E1" stroke-opacity="0.08" stroke-width="2" stroke-linecap="square"/>
<path opacity="0.62" d="M800 170L746.667 222.667" stroke="#E1E1E1" stroke-opacity="0.08" stroke-width="2" stroke-linecap="square"/>
<path opacity="0.62" d="M800 170L853.333 222.667" stroke="#E1E1E1" stroke-opacity="0.08" stroke-width="2" stroke-linecap="square"/>
<path opacity="0.62" d="M853.333 170L906.666 222.667" stroke="#E1E1E1" stroke-opacity="0.08" stroke-width="2" stroke-linecap="square"/>
<path opacity="0.62" d="M960 170L906.667 222.667" stroke="#E1E1E1" stroke-opacity="0.08" stroke-width="2" stroke-linecap="square"/>
<path opacity="0.62" d="M1013.33 170L960 222.667" stroke="#E1E1E1" stroke-opacity="0.08" stroke-width="2" stroke-linecap="square"/>
<path opacity="0.62" d="M1066.67 170L1013.33 222.667" stroke="#E1E1E1" stroke-opacity="0.08" stroke-width="2" stroke-linecap="square"/>
<path opacity="0.62" d="M1066.67 170L1120 222.667" stroke="#E1E1E1" stroke-opacity="0.08" stroke-width="2" stroke-linecap="square"/>
<path opacity="0.62" d="M1120 170L1173.33 222.667" stroke="#E1E1E1" stroke-opacity="0.08" stroke-width="2" stroke-linecap="square"/>
<path opacity="0.62" d="M1173.33 170L1226.67 222.667" stroke="#E1E1E1" stroke-opacity="0.08" stroke-width="2" stroke-linecap="square"/>
<path opacity="0.62" d="M1226.67 170L1280 222.667" stroke="#E1E1E1" stroke-opacity="0.08" stroke-width="2" stroke-linecap="square"/>
<path opacity="0.62" d="M1280 170L1333.33 222.667" stroke="#E1E1E1" stroke-opacity="0.08" stroke-width="2" stroke-linecap="square"/>
<path opacity="0.62" d="M1333.33 170L1386.67 222.667" stroke="#E1E1E1" stroke-opacity="0.08" stroke-width="2" stroke-linecap="square"/>
<path opacity="0.62" d="M1440 170L1386.67 222.667" stroke="#E1E1E1" stroke-opacity="0.08" stroke-width="2" stroke-linecap="square"/>
<path opacity="0.55" d="M53.3333 222.668L0 275.335" stroke="#E1E1E1" stroke-opacity="0.08" stroke-width="2" stroke-linecap="square"/>
<path opacity="0.55" d="M53.333 222.668L106.666 275.335" stroke="#E1E1E1" stroke-opacity="0.08" stroke-width="2" stroke-linecap="square"/>
<path opacity="0.55" d="M106.667 222.668L160 275.335" stroke="#E1E1E1" stroke-opacity="0.08" stroke-width="2" stroke-linecap="square"/>
<path opacity="0.55" d="M213.333 222.668L160 275.335" stroke="#E1E1E1" stroke-opacity="0.08" stroke-width="2" stroke-linecap="square"/>
<path opacity="0.55" d="M266.667 222.668L213.334 275.335" stroke="#E1E1E1" stroke-opacity="0.08" stroke-width="2" stroke-linecap="square"/>
<path opacity="0.55" d="M266.667 222.668L320 275.335" stroke="#E1E1E1" stroke-opacity="0.08" stroke-width="2" stroke-linecap="square"/>
<path opacity="0.55" d="M320 222.668L373.333 275.335" stroke="#E1E1E1" stroke-opacity="0.08" stroke-width="2" stroke-linecap="square"/>
<path opacity="0.55" d="M373.333 222.668L426.666 275.335" stroke="#E1E1E1" stroke-opacity="0.08" stroke-width="2" stroke-linecap="square"/>
<path opacity="0.55" d="M480 222.668L426.667 275.335" stroke="#E1E1E1" stroke-opacity="0.08" stroke-width="2" stroke-linecap="square"/>
<path opacity="0.55" d="M533.333 222.668L480 275.335" stroke="#E1E1E1" stroke-opacity="0.08" stroke-width="2" stroke-linecap="square"/>
<path opacity="0.55" d="M586.666 222.668L533.333 275.335" stroke="#E1E1E1" stroke-opacity="0.08" stroke-width="2" stroke-linecap="square"/>
<path opacity="0.55" d="M640 222.668L586.667 275.335" stroke="#E1E1E1" stroke-opacity="0.08" stroke-width="2" stroke-linecap="square"/>
<path opacity="0.55" d="M693.333 222.668L640 275.335" stroke="#E1E1E1" stroke-opacity="0.08" stroke-width="2" stroke-linecap="square"/>
<path opacity="0.55" d="M746.666 222.668L693.333 275.335" stroke="#E1E1E1" stroke-opacity="0.08" stroke-width="2" stroke-linecap="square"/>
<path opacity="0.55" d="M800 222.668L746.667 275.335" stroke="#E1E1E1" stroke-opacity="0.08" stroke-width="2" stroke-linecap="square"/>
<path opacity="0.55" d="M800 222.668L853.333 275.335" stroke="#E1E1E1" stroke-opacity="0.08" stroke-width="2" stroke-linecap="square"/>
<path opacity="0.55" d="M853.333 222.668L906.666 275.335" stroke="#E1E1E1" stroke-opacity="0.08" stroke-width="2" stroke-linecap="square"/>
<path opacity="0.55" d="M906.667 222.668L960 275.335" stroke="#E1E1E1" stroke-opacity="0.08" stroke-width="2" stroke-linecap="square"/>
<path opacity="0.55" d="M960 222.668L1013.33 275.335" stroke="#E1E1E1" stroke-opacity="0.08" stroke-width="2" stroke-linecap="square"/>
<path opacity="0.55" d="M1013.33 222.668L1066.67 275.335" stroke="#E1E1E1" stroke-opacity="0.08" stroke-width="2" stroke-linecap="square"/>
<path opacity="0.55" d="M1066.67 222.668L1120 275.335" stroke="#E1E1E1" stroke-opacity="0.08" stroke-width="2" stroke-linecap="square"/>
<path opacity="0.55" d="M1120 222.668L1173.33 275.335" stroke="#E1E1E1" stroke-opacity="0.08" stroke-width="2" stroke-linecap="square"/>
<path opacity="0.55" d="M1173.33 222.668L1226.67 275.335" stroke="#E1E1E1" stroke-opacity="0.08" stroke-width="2" stroke-linecap="square"/>
<path opacity="0.55" d="M1280 222.668L1226.67 275.335" stroke="#E1E1E1" stroke-opacity="0.08" stroke-width="2" stroke-linecap="square"/>
<path opacity="0.55" d="M1333.33 222.668L1280 275.335" stroke="#E1E1E1" stroke-opacity="0.08" stroke-width="2" stroke-linecap="square"/>
<path opacity="0.55" d="M1333.33 222.668L1386.67 275.335" stroke="#E1E1E1" stroke-opacity="0.08" stroke-width="2" stroke-linecap="square"/>
<path opacity="0.55" d="M1386.67 222.668L1440 275.335" stroke="#E1E1E1" stroke-opacity="0.08" stroke-width="2" stroke-linecap="square"/>
<path opacity="0.49" d="M53.3333 275.332L0 327.999" stroke="#E1E1E1" stroke-opacity="0.08" stroke-width="2" stroke-linecap="square"/>
<path opacity="0.49" d="M53.333 275.332L106.666 327.999" stroke="#E1E1E1" stroke-opacity="0.08" stroke-width="2" stroke-linecap="square"/>
<path opacity="0.49" d="M106.667 275.332L160 327.999" stroke="#E1E1E1" stroke-opacity="0.08" stroke-width="2" stroke-linecap="square"/>
<path opacity="0.49" d="M213.333 275.332L160 327.999" stroke="#E1E1E1" stroke-opacity="0.08" stroke-width="2" stroke-linecap="square"/>
<path opacity="0.49" d="M266.667 275.332L213.334 327.999" stroke="#E1E1E1" stroke-opacity="0.08" stroke-width="2" stroke-linecap="square"/>
<path opacity="0.49" d="M320 275.332L266.667 327.999" stroke="#E1E1E1" stroke-opacity="0.08" stroke-width="2" stroke-linecap="square"/>
<path opacity="0.49" d="M373.333 275.332L320 327.999" stroke="#E1E1E1" stroke-opacity="0.08" stroke-width="2" stroke-linecap="square"/>
<path opacity="0.49" d="M426.666 275.332L373.333 327.999" stroke="#E1E1E1" stroke-opacity="0.08" stroke-width="2" stroke-linecap="square"/>
<path opacity="0.49" d="M480 275.332L426.667 327.999" stroke="#E1E1E1" stroke-opacity="0.08" stroke-width="2" stroke-linecap="square"/>
<path opacity="0.49" d="M480 275.332L533.333 327.999" stroke="#E1E1E1" stroke-opacity="0.08" stroke-width="2" stroke-linecap="square"/>
<path opacity="0.49" d="M586.666 275.332L533.333 327.999" stroke="#E1E1E1" stroke-opacity="0.08" stroke-width="2" stroke-linecap="square"/>
<path opacity="0.49" d="M586.667 275.332L640 327.999" stroke="#E1E1E1" stroke-opacity="0.08" stroke-width="2" stroke-linecap="square"/>
<path opacity="0.49" d="M693.333 275.332L640 327.999" stroke="#E1E1E1" stroke-opacity="0.08" stroke-width="2" stroke-linecap="square"/>
<path opacity="0.49" d="M746.666 275.332L693.333 327.999" stroke="#E1E1E1" stroke-opacity="0.08" stroke-width="2" stroke-linecap="square"/>
<path opacity="0.49" d="M800 275.332L746.667 327.999" stroke="#E1E1E1" stroke-opacity="0.08" stroke-width="2" stroke-linecap="square"/>
<path opacity="0.49" d="M800 275.332L853.333 327.999" stroke="#E1E1E1" stroke-opacity="0.08" stroke-width="2" stroke-linecap="square"/>
<path opacity="0.49" d="M906.666 275.332L853.333 327.999" stroke="#E1E1E1" stroke-opacity="0.08" stroke-width="2" stroke-linecap="square"/>
<path opacity="0.49" d="M906.667 275.332L960 327.999" stroke="#E1E1E1" stroke-opacity="0.08" stroke-width="2" stroke-linecap="square"/>
<path opacity="0.49" d="M960 275.332L1013.33 327.999" stroke="#E1E1E1" stroke-opacity="0.08" stroke-width="2" stroke-linecap="square"/>
<path opacity="0.49" d="M1066.67 275.332L1013.33 327.999" stroke="#E1E1E1" stroke-opacity="0.08" stroke-width="2" stroke-linecap="square"/>
<path opacity="0.49" d="M1120 275.332L1066.67 327.999" stroke="#E1E1E1" stroke-opacity="0.08" stroke-width="2" stroke-linecap="square"/>
<path opacity="0.49" d="M1120 275.332L1173.33 327.999" stroke="#E1E1E1" stroke-opacity="0.08" stroke-width="2" stroke-linecap="square"/>
<path opacity="0.49" d="M1173.33 275.332L1226.67 327.999" stroke="#E1E1E1" stroke-opacity="0.08" stroke-width="2" stroke-linecap="square"/>
<path opacity="0.49" d="M1226.67 275.332L1280 327.999" stroke="#E1E1E1" stroke-opacity="0.08" stroke-width="2" stroke-linecap="square"/>
<path opacity="0.49" d="M1333.33 275.332L1280 327.999" stroke="#E1E1E1" stroke-opacity="0.08" stroke-width="2" stroke-linecap="square"/>
<path opacity="0.49" d="M1333.33 275.332L1386.67 327.999" stroke="#E1E1E1" stroke-opacity="0.08" stroke-width="2" stroke-linecap="square"/>
<path opacity="0.49" d="M1440 275.332L1386.67 327.999" stroke="#E1E1E1" stroke-opacity="0.08" stroke-width="2" stroke-linecap="square"/>
<path opacity="0.42" d="M0 328L53.3333 380.667" stroke="#E1E1E1" stroke-opacity="0.08" stroke-width="2" stroke-linecap="square"/>
<path opacity="0.42" d="M53.333 328L106.666 380.667" stroke="#E1E1E1" stroke-opacity="0.08" stroke-width="2" stroke-linecap="square"/>
<path opacity="0.42" d="M160 328L106.667 380.667" stroke="#E1E1E1" stroke-opacity="0.08" stroke-width="2" stroke-linecap="square"/>
<path opacity="0.42" d="M160 328L213.334 380.667" stroke="#E1E1E1" stroke-opacity="0.08" stroke-width="2" stroke-linecap="square"/>
<path opacity="0.42" d="M266.667 328L213.334 380.667" stroke="#E1E1E1" stroke-opacity="0.08" stroke-width="2" stroke-linecap="square"/>
<path opacity="0.42" d="M266.667 328L320 380.667" stroke="#E1E1E1" stroke-opacity="0.08" stroke-width="2" stroke-linecap="square"/>
<path opacity="0.42" d="M373.333 328L320 380.667" stroke="#E1E1E1" stroke-opacity="0.08" stroke-width="2" stroke-linecap="square"/>
<path opacity="0.42" d="M426.667 328L373.333 380.667" stroke="#E1E1E1" stroke-opacity="0.08" stroke-width="2" stroke-linecap="square"/>
<path opacity="0.42" d="M480 328L426.667 380.667" stroke="#E1E1E1" stroke-opacity="0.08" stroke-width="2" stroke-linecap="square"/>
<path opacity="0.42" d="M533.333 328L480 380.667" stroke="#E1E1E1" stroke-opacity="0.08" stroke-width="2" stroke-linecap="square"/>
<path opacity="0.42" d="M533.333 328L586.666 380.667" stroke="#E1E1E1" stroke-opacity="0.08" stroke-width="2" stroke-linecap="square"/>
<path opacity="0.42" d="M586.667 328L640 380.667" stroke="#E1E1E1" stroke-opacity="0.08" stroke-width="2" stroke-linecap="square"/>
<path opacity="0.42" d="M640 328L693.333 380.667" stroke="#E1E1E1" stroke-opacity="0.08" stroke-width="2" stroke-linecap="square"/>
<path opacity="0.42" d="M693.333 328L746.666 380.667" stroke="#E1E1E1" stroke-opacity="0.08" stroke-width="2" stroke-linecap="square"/>
<path opacity="0.42" d="M746.667 328L800 380.667" stroke="#E1E1E1" stroke-opacity="0.08" stroke-width="2" stroke-linecap="square"/>
<path opacity="0.42" d="M853.333 328L800 380.667" stroke="#E1E1E1" stroke-opacity="0.08" stroke-width="2" stroke-linecap="square"/>
<path opacity="0.42" d="M906.666 328L853.333 380.667" stroke="#E1E1E1" stroke-opacity="0.08" stroke-width="2" stroke-linecap="square"/>
<path opacity="0.42" d="M960 328L906.667 380.667" stroke="#E1E1E1" stroke-opacity="0.08" stroke-width="2" stroke-linecap="square"/>
<path opacity="0.42" d="M960 328L1013.33 380.667" stroke="#E1E1E1" stroke-opacity="0.08" stroke-width="2" stroke-linecap="square"/>
<path opacity="0.42" d="M1013.33 328L1066.67 380.667" stroke="#E1E1E1" stroke-opacity="0.08" stroke-width="2" stroke-linecap="square"/>
<path opacity="0.42" d="M1066.67 328L1120 380.667" stroke="#E1E1E1" stroke-opacity="0.08" stroke-width="2" stroke-linecap="square"/>
<path opacity="0.42" d="M1173.33 328L1120 380.667" stroke="#E1E1E1" stroke-opacity="0.08" stroke-width="2" stroke-linecap="square"/>
<path opacity="0.42" d="M1226.67 328L1173.33 380.667" stroke="#E1E1E1" stroke-opacity="0.08" stroke-width="2" stroke-linecap="square"/>
<path opacity="0.42" d="M1226.67 328L1280 380.667" stroke="#E1E1E1" stroke-opacity="0.08" stroke-width="2" stroke-linecap="square"/>
<path opacity="0.42" d="M1280 328L1333.33 380.667" stroke="#E1E1E1" stroke-opacity="0.08" stroke-width="2" stroke-linecap="square"/>
<path opacity="0.42" d="M1386.67 328L1333.33 380.667" stroke="#E1E1E1" stroke-opacity="0.08" stroke-width="2" stroke-linecap="square"/>
<path opacity="0.42" d="M1386.67 328L1440 380.667" stroke="#E1E1E1" stroke-opacity="0.08" stroke-width="2" stroke-linecap="square"/>
<path opacity="0.36" d="M0 380.668L53.3333 433.335" stroke="#E1E1E1" stroke-opacity="0.08" stroke-width="2" stroke-linecap="square"/>
<path opacity="0.36" d="M106.666 380.668L53.333 433.335" stroke="#E1E1E1" stroke-opacity="0.08" stroke-width="2" stroke-linecap="square"/>
<path opacity="0.36" d="M106.667 380.668L160 433.335" stroke="#E1E1E1" stroke-opacity="0.08" stroke-width="2" stroke-linecap="square"/>
<path opacity="0.36" d="M213.333 380.668L160 433.335" stroke="#E1E1E1" stroke-opacity="0.08" stroke-width="2" stroke-linecap="square"/>
<path opacity="0.36" d="M266.667 380.668L213.334 433.335" stroke="#E1E1E1" stroke-opacity="0.08" stroke-width="2" stroke-linecap="square"/>
<path opacity="0.36" d="M320 380.668L266.667 433.335" stroke="#E1E1E1" stroke-opacity="0.08" stroke-width="2" stroke-linecap="square"/>
<path opacity="0.36" d="M373.333 380.668L320 433.335" stroke="#E1E1E1" stroke-opacity="0.08" stroke-width="2" stroke-linecap="square"/>
<path opacity="0.36" d="M426.666 380.668L373.333 433.335" stroke="#E1E1E1" stroke-opacity="0.08" stroke-width="2" stroke-linecap="square"/>
<path opacity="0.36" d="M426.667 380.668L480 433.335" stroke="#E1E1E1" stroke-opacity="0.08" stroke-width="2" stroke-linecap="square"/>
<path opacity="0.36" d="M533.333 380.668L480 433.335" stroke="#E1E1E1" stroke-opacity="0.08" stroke-width="2" stroke-linecap="square"/>
<path opacity="0.36" d="M533.333 380.668L586.666 433.335" stroke="#E1E1E1" stroke-opacity="0.08" stroke-width="2" stroke-linecap="square"/>
<path opacity="0.36" d="M640 380.668L586.667 433.335" stroke="#E1E1E1" stroke-opacity="0.08" stroke-width="2" stroke-linecap="square"/>
<path opacity="0.36" d="M640 380.668L693.333 433.335" stroke="#E1E1E1" stroke-opacity="0.08" stroke-width="2" stroke-linecap="square"/>
<path opacity="0.36" d="M693.333 380.668L746.666 433.335" stroke="#E1E1E1" stroke-opacity="0.08" stroke-width="2" stroke-linecap="square"/>
<path opacity="0.36" d="M746.667 380.668L800 433.335" stroke="#E1E1E1" stroke-opacity="0.08" stroke-width="2" stroke-linecap="square"/>
<path opacity="0.36" d="M853.333 380.668L800 433.335" stroke="#E1E1E1" stroke-opacity="0.08" stroke-width="2" stroke-linecap="square"/>
<path opacity="0.36" d="M906.666 380.668L853.333 433.335" stroke="#E1E1E1" stroke-opacity="0.08" stroke-width="2" stroke-linecap="square"/>
<path opacity="0.36" d="M960 380.668L906.667 433.335" stroke="#E1E1E1" stroke-opacity="0.08" stroke-width="2" stroke-linecap="square"/>
<path opacity="0.36" d="M960 380.668L1013.33 433.335" stroke="#E1E1E1" stroke-opacity="0.08" stroke-width="2" stroke-linecap="square"/>
<path opacity="0.36" d="M1066.67 380.668L1013.33 433.335" stroke="#E1E1E1" stroke-opacity="0.08" stroke-width="2" stroke-linecap="square"/>
<path opacity="0.36" d="M1066.67 380.668L1120 433.335" stroke="#E1E1E1" stroke-opacity="0.08" stroke-width="2" stroke-linecap="square"/>
<path opacity="0.36" d="M1173.33 380.668L1120 433.335" stroke="#E1E1E1" stroke-opacity="0.08" stroke-width="2" stroke-linecap="square"/>
<path opacity="0.36" d="M1173.33 380.668L1226.67 433.335" stroke="#E1E1E1" stroke-opacity="0.08" stroke-width="2" stroke-linecap="square"/>
<path opacity="0.36" d="M1280 380.668L1226.67 433.335" stroke="#E1E1E1" stroke-opacity="0.08" stroke-width="2" stroke-linecap="square"/>
<path opacity="0.36" d="M1280 380.668L1333.33 433.335" stroke="#E1E1E1" stroke-opacity="0.08" stroke-width="2" stroke-linecap="square"/>
<path opacity="0.36" d="M1386.67 380.668L1333.33 433.335" stroke="#E1E1E1" stroke-opacity="0.08" stroke-width="2" stroke-linecap="square"/>
<path opacity="0.36" d="M1440 380.668L1386.67 433.335" stroke="#E1E1E1" stroke-opacity="0.08" stroke-width="2" stroke-linecap="square"/>
<path opacity="0.29" d="M0 433.332L53.3333 485.999" stroke="#E1E1E1" stroke-opacity="0.08" stroke-width="2" stroke-linecap="square"/>
<path opacity="0.29" d="M53.333 433.332L106.666 485.999" stroke="#E1E1E1" stroke-opacity="0.08" stroke-width="2" stroke-linecap="square"/>
<path opacity="0.29" d="M160 433.332L106.667 485.999" stroke="#E1E1E1" stroke-opacity="0.08" stroke-width="2" stroke-linecap="square"/>
<path opacity="0.29" d="M160 433.332L213.333 485.999" stroke="#E1E1E1" stroke-opacity="0.08" stroke-width="2" stroke-linecap="square"/>
<path opacity="0.29" d="M213.334 433.332L266.667 485.999" stroke="#E1E1E1" stroke-opacity="0.08" stroke-width="2" stroke-linecap="square"/>
<path opacity="0.29" d="M266.667 433.332L320 485.999" stroke="#E1E1E1" stroke-opacity="0.08" stroke-width="2" stroke-linecap="square"/>
<path opacity="0.29" d="M373.333 433.332L320 485.999" stroke="#E1E1E1" stroke-opacity="0.08" stroke-width="2" stroke-linecap="square"/>
<path opacity="0.29" d="M426.666 433.332L373.333 485.999" stroke="#E1E1E1" stroke-opacity="0.08" stroke-width="2" stroke-linecap="square"/>
<path opacity="0.29" d="M480 433.332L426.667 485.999" stroke="#E1E1E1" stroke-opacity="0.08" stroke-width="2" stroke-linecap="square"/>
<path opacity="0.29" d="M480 433.332L533.333 485.999" stroke="#E1E1E1" stroke-opacity="0.08" stroke-width="2" stroke-linecap="square"/>
<path opacity="0.29" d="M586.666 433.332L533.333 485.999" stroke="#E1E1E1" stroke-opacity="0.08" stroke-width="2" stroke-linecap="square"/>
<path opacity="0.29" d="M640 433.332L586.667 485.999" stroke="#E1E1E1" stroke-opacity="0.08" stroke-width="2" stroke-linecap="square"/>
<path opacity="0.29" d="M640 433.332L693.333 485.999" stroke="#E1E1E1" stroke-opacity="0.08" stroke-width="2" stroke-linecap="square"/>
<path opacity="0.29" d="M746.666 433.332L693.333 485.999" stroke="#E1E1E1" stroke-opacity="0.08" stroke-width="2" stroke-linecap="square"/>
<path opacity="0.29" d="M800 433.332L746.667 485.999" stroke="#E1E1E1" stroke-opacity="0.08" stroke-width="2" stroke-linecap="square"/>
<path opacity="0.29" d="M853.333 433.332L800 485.999" stroke="#E1E1E1" stroke-opacity="0.08" stroke-width="2" stroke-linecap="square"/>
<path opacity="0.29" d="M906.666 433.332L853.333 485.999" stroke="#E1E1E1" stroke-opacity="0.08" stroke-width="2" stroke-linecap="square"/>
<path opacity="0.29" d="M906.667 433.332L960 485.999" stroke="#E1E1E1" stroke-opacity="0.08" stroke-width="2" stroke-linecap="square"/>
<path opacity="0.29" d="M1013.33 433.332L960 485.999" stroke="#E1E1E1" stroke-opacity="0.08" stroke-width="2" stroke-linecap="square"/>
<path opacity="0.29" d="M1013.33 433.332L1066.67 485.999" stroke="#E1E1E1" stroke-opacity="0.08" stroke-width="2" stroke-linecap="square"/>
<path opacity="0.29" d="M1066.67 433.332L1120 485.999" stroke="#E1E1E1" stroke-opacity="0.08" stroke-width="2" stroke-linecap="square"/>
<path opacity="0.29" d="M1173.33 433.332L1120 485.999" stroke="#E1E1E1" stroke-opacity="0.08" stroke-width="2" stroke-linecap="square"/>
<path opacity="0.29" d="M1226.67 433.332L1173.33 485.999" stroke="#E1E1E1" stroke-opacity="0.08" stroke-width="2" stroke-linecap="square"/>
<path opacity="0.29" d="M1280 433.332L1226.67 485.999" stroke="#E1E1E1" stroke-opacity="0.08" stroke-width="2" stroke-linecap="square"/>
<path opacity="0.29" d="M1280 433.332L1333.33 485.999" stroke="#E1E1E1" stroke-opacity="0.08" stroke-width="2" stroke-linecap="square"/>
<path opacity="0.29" d="M1333.33 433.332L1386.67 485.999" stroke="#E1E1E1" stroke-opacity="0.08" stroke-width="2" stroke-linecap="square"/>
<path opacity="0.29" d="M1386.67 433.332L1440 485.999" stroke="#E1E1E1" stroke-opacity="0.08" stroke-width="2" stroke-linecap="square"/>
<path opacity="0.23" d="M0 486L53.3333 538.667" stroke="#E1E1E1" stroke-opacity="0.08" stroke-width="2" stroke-linecap="square"/>
<path opacity="0.23" d="M106.666 486L53.333 538.667" stroke="#E1E1E1" stroke-opacity="0.08" stroke-width="2" stroke-linecap="square"/>
<path opacity="0.23" d="M160 486L106.667 538.667" stroke="#E1E1E1" stroke-opacity="0.08" stroke-width="2" stroke-linecap="square"/>
<path opacity="0.23" d="M160 486L213.334 538.667" stroke="#E1E1E1" stroke-opacity="0.08" stroke-width="2" stroke-linecap="square"/>
<path opacity="0.23" d="M266.667 486L213.334 538.667" stroke="#E1E1E1" stroke-opacity="0.08" stroke-width="2" stroke-linecap="square"/>
<path opacity="0.23" d="M320 486L266.667 538.667" stroke="#E1E1E1" stroke-opacity="0.08" stroke-width="2" stroke-linecap="square"/>
<path opacity="0.23" d="M373.333 486L320 538.667" stroke="#E1E1E1" stroke-opacity="0.08" stroke-width="2" stroke-linecap="square"/>
<path opacity="0.23" d="M373.333 486L426.667 538.667" stroke="#E1E1E1" stroke-opacity="0.08" stroke-width="2" stroke-linecap="square"/>
<path opacity="0.23" d="M426.667 486L480 538.667" stroke="#E1E1E1" stroke-opacity="0.08" stroke-width="2" stroke-linecap="square"/>
<path opacity="0.23" d="M533.333 486L480 538.667" stroke="#E1E1E1" stroke-opacity="0.08" stroke-width="2" stroke-linecap="square"/>
<path opacity="0.23" d="M533.333 486L586.666 538.667" stroke="#E1E1E1" stroke-opacity="0.08" stroke-width="2" stroke-linecap="square"/>
<path opacity="0.23" d="M640 486L586.667 538.667" stroke="#E1E1E1" stroke-opacity="0.08" stroke-width="2" stroke-linecap="square"/>
<path opacity="0.23" d="M640 486L693.333 538.667" stroke="#E1E1E1" stroke-opacity="0.08" stroke-width="2" stroke-linecap="square"/>
<path opacity="0.23" d="M693.333 486L746.666 538.667" stroke="#E1E1E1" stroke-opacity="0.08" stroke-width="2" stroke-linecap="square"/>
<path opacity="0.23" d="M800 486L746.667 538.667" stroke="#E1E1E1" stroke-opacity="0.08" stroke-width="2" stroke-linecap="square"/>
<path opacity="0.23" d="M853.333 486L800 538.667" stroke="#E1E1E1" stroke-opacity="0.08" stroke-width="2" stroke-linecap="square"/>
<path opacity="0.23" d="M853.333 486L906.666 538.667" stroke="#E1E1E1" stroke-opacity="0.08" stroke-width="2" stroke-linecap="square"/>
<path opacity="0.23" d="M906.667 486L960 538.667" stroke="#E1E1E1" stroke-opacity="0.08" stroke-width="2" stroke-linecap="square"/>
<path opacity="0.23" d="M960 486L1013.33 538.667" stroke="#E1E1E1" stroke-opacity="0.08" stroke-width="2" stroke-linecap="square"/>
<path opacity="0.23" d="M1066.67 486L1013.33 538.667" stroke="#E1E1E1" stroke-opacity="0.08" stroke-width="2" stroke-linecap="square"/>
<path opacity="0.23" d="M1066.67 486L1120 538.667" stroke="#E1E1E1" stroke-opacity="0.08" stroke-width="2" stroke-linecap="square"/>
<path opacity="0.23" d="M1173.33 486L1120 538.667" stroke="#E1E1E1" stroke-opacity="0.08" stroke-width="2" stroke-linecap="square"/>
<path opacity="0.23" d="M1226.67 486L1173.33 538.667" stroke="#E1E1E1" stroke-opacity="0.08" stroke-width="2" stroke-linecap="square"/>
<path opacity="0.23" d="M1226.67 486L1280 538.667" stroke="#E1E1E1" stroke-opacity="0.08" stroke-width="2" stroke-linecap="square"/>
<path opacity="0.23" d="M1333.33 486L1280 538.667" stroke="#E1E1E1" stroke-opacity="0.08" stroke-width="2" stroke-linecap="square"/>
<path opacity="0.23" d="M1333.33 486L1386.67 538.667" stroke="#E1E1E1" stroke-opacity="0.08" stroke-width="2" stroke-linecap="square"/>
<path opacity="0.23" d="M1386.67 486L1440 538.667" stroke="#E1E1E1" stroke-opacity="0.08" stroke-width="2" stroke-linecap="square"/>
<path opacity="0.17" d="M0 538.668L53.3333 591.335" stroke="#E1E1E1" stroke-opacity="0.08" stroke-width="2" stroke-linecap="square"/>
<path opacity="0.17" d="M106.666 538.668L53.333 591.335" stroke="#E1E1E1" stroke-opacity="0.08" stroke-width="2" stroke-linecap="square"/>
<path opacity="0.17" d="M106.667 538.668L160 591.335" stroke="#E1E1E1" stroke-opacity="0.08" stroke-width="2" stroke-linecap="square"/>
<path opacity="0.17" d="M213.333 538.668L160 591.335" stroke="#E1E1E1" stroke-opacity="0.08" stroke-width="2" stroke-linecap="square"/>
<path opacity="0.17" d="M213.334 538.668L266.667 591.335" stroke="#E1E1E1" stroke-opacity="0.08" stroke-width="2" stroke-linecap="square"/>
<path opacity="0.17" d="M266.667 538.668L320 591.335" stroke="#E1E1E1" stroke-opacity="0.08" stroke-width="2" stroke-linecap="square"/>
<path opacity="0.17" d="M320 538.668L373.333 591.335" stroke="#E1E1E1" stroke-opacity="0.08" stroke-width="2" stroke-linecap="square"/>
<path opacity="0.17" d="M373.333 538.668L426.666 591.335" stroke="#E1E1E1" stroke-opacity="0.08" stroke-width="2" stroke-linecap="square"/>
<path opacity="0.17" d="M426.667 538.668L480 591.335" stroke="#E1E1E1" stroke-opacity="0.08" stroke-width="2" stroke-linecap="square"/>
<path opacity="0.17" d="M480 538.668L533.333 591.335" stroke="#E1E1E1" stroke-opacity="0.08" stroke-width="2" stroke-linecap="square"/>
<path opacity="0.17" d="M586.666 538.668L533.333 591.335" stroke="#E1E1E1" stroke-opacity="0.08" stroke-width="2" stroke-linecap="square"/>
<path opacity="0.17" d="M640 538.668L586.667 591.335" stroke="#E1E1E1" stroke-opacity="0.08" stroke-width="2" stroke-linecap="square"/>
<path opacity="0.17" d="M640 538.668L693.333 591.335" stroke="#E1E1E1" stroke-opacity="0.08" stroke-width="2" stroke-linecap="square"/>
<path opacity="0.17" d="M693.333 538.668L746.666 591.335" stroke="#E1E1E1" stroke-opacity="0.08" stroke-width="2" stroke-linecap="square"/>
<path opacity="0.17" d="M746.667 538.668L800 591.335" stroke="#E1E1E1" stroke-opacity="0.08" stroke-width="2" stroke-linecap="square"/>
<path opacity="0.17" d="M800 538.668L853.333 591.335" stroke="#E1E1E1" stroke-opacity="0.08" stroke-width="2" stroke-linecap="square"/>
<path opacity="0.17" d="M853.333 538.668L906.666 591.335" stroke="#E1E1E1" stroke-opacity="0.08" stroke-width="2" stroke-linecap="square"/>
<path opacity="0.17" d="M960 538.668L906.667 591.335" stroke="#E1E1E1" stroke-opacity="0.08" stroke-width="2" stroke-linecap="square"/>
<path opacity="0.17" d="M1013.33 538.668L960 591.335" stroke="#E1E1E1" stroke-opacity="0.08" stroke-width="2" stroke-linecap="square"/>
<path opacity="0.17" d="M1013.33 538.668L1066.67 591.335" stroke="#E1E1E1" stroke-opacity="0.08" stroke-width="2" stroke-linecap="square"/>
<path opacity="0.17" d="M1066.67 538.668L1120 591.335" stroke="#E1E1E1" stroke-opacity="0.08" stroke-width="2" stroke-linecap="square"/>
<path opacity="0.17" d="M1120 538.668L1173.33 591.335" stroke="#E1E1E1" stroke-opacity="0.08" stroke-width="2" stroke-linecap="square"/>
<path opacity="0.17" d="M1226.67 538.668L1173.33 591.335" stroke="#E1E1E1" stroke-opacity="0.08" stroke-width="2" stroke-linecap="square"/>
<path opacity="0.17" d="M1280 538.668L1226.67 591.335" stroke="#E1E1E1" stroke-opacity="0.08" stroke-width="2" stroke-linecap="square"/>
<path opacity="0.17" d="M1280 538.668L1333.33 591.335" stroke="#E1E1E1" stroke-opacity="0.08" stroke-width="2" stroke-linecap="square"/>
<path opacity="0.17" d="M1386.67 538.668L1333.33 591.335" stroke="#E1E1E1" stroke-opacity="0.08" stroke-width="2" stroke-linecap="square"/>
<path opacity="0.17" d="M1386.67 538.668L1440 591.335" stroke="#E1E1E1" stroke-opacity="0.08" stroke-width="2" stroke-linecap="square"/>
<path opacity="0.1" d="M0 591.332L53.3333 643.999" stroke="#E1E1E1" stroke-opacity="0.08" stroke-width="2" stroke-linecap="square"/>
<path opacity="0.1" d="M53.333 591.332L106.666 643.999" stroke="#E1E1E1" stroke-opacity="0.08" stroke-width="2" stroke-linecap="square"/>
<path opacity="0.1" d="M160 591.332L106.667 643.999" stroke="#E1E1E1" stroke-opacity="0.08" stroke-width="2" stroke-linecap="square"/>
<path opacity="0.1" d="M160 591.332L213.333 643.999" stroke="#E1E1E1" stroke-opacity="0.08" stroke-width="2" stroke-linecap="square"/>
<path opacity="0.1" d="M213.334 591.332L266.667 643.999" stroke="#E1E1E1" stroke-opacity="0.08" stroke-width="2" stroke-linecap="square"/>
<path opacity="0.1" d="M320 591.332L266.667 643.999" stroke="#E1E1E1" stroke-opacity="0.08" stroke-width="2" stroke-linecap="square"/>
<path opacity="0.1" d="M320 591.332L373.333 643.999" stroke="#E1E1E1" stroke-opacity="0.08" stroke-width="2" stroke-linecap="square"/>
<path opacity="0.1" d="M373.333 591.332L426.666 643.999" stroke="#E1E1E1" stroke-opacity="0.08" stroke-width="2" stroke-linecap="square"/>
<path opacity="0.1" d="M480 591.332L426.667 643.999" stroke="#E1E1E1" stroke-opacity="0.08" stroke-width="2" stroke-linecap="square"/>
<path opacity="0.1" d="M533.333 591.332L480 643.999" stroke="#E1E1E1" stroke-opacity="0.08" stroke-width="2" stroke-linecap="square"/>
<path opacity="0.1" d="M586.666 591.332L533.333 643.999" stroke="#E1E1E1" stroke-opacity="0.08" stroke-width="2" stroke-linecap="square"/>
<path opacity="0.1" d="M640 591.332L586.667 643.999" stroke="#E1E1E1" stroke-opacity="0.08" stroke-width="2" stroke-linecap="square"/>
<path opacity="0.1" d="M640 591.332L693.333 643.999" stroke="#E1E1E1" stroke-opacity="0.08" stroke-width="2" stroke-linecap="square"/>
<path opacity="0.1" d="M693.333 591.332L746.666 643.999" stroke="#E1E1E1" stroke-opacity="0.08" stroke-width="2" stroke-linecap="square"/>
<path opacity="0.1" d="M746.667 591.332L800 643.999" stroke="#E1E1E1" stroke-opacity="0.08" stroke-width="2" stroke-linecap="square"/>
<path opacity="0.1" d="M853.333 591.332L800 643.999" stroke="#E1E1E1" stroke-opacity="0.08" stroke-width="2" stroke-linecap="square"/>
<path opacity="0.1" d="M853.333 591.332L906.666 643.999" stroke="#E1E1E1" stroke-opacity="0.08" stroke-width="2" stroke-linecap="square"/>
<path opacity="0.1" d="M960 591.332L906.667 643.999" stroke="#E1E1E1" stroke-opacity="0.08" stroke-width="2" stroke-linecap="square"/>
<path opacity="0.1" d="M1013.33 591.332L960 643.999" stroke="#E1E1E1" stroke-opacity="0.08" stroke-width="2" stroke-linecap="square"/>
<path opacity="0.1" d="M1066.67 591.332L1013.33 643.999" stroke="#E1E1E1" stroke-opacity="0.08" stroke-width="2" stroke-linecap="square"/>
<path opacity="0.1" d="M1066.67 591.332L1120 643.999" stroke="#E1E1E1" stroke-opacity="0.08" stroke-width="2" stroke-linecap="square"/>
<path opacity="0.1" d="M1173.33 591.332L1120 643.999" stroke="#E1E1E1" stroke-opacity="0.08" stroke-width="2" stroke-linecap="square"/>
<path opacity="0.1" d="M1226.67 591.332L1173.33 643.999" stroke="#E1E1E1" stroke-opacity="0.08" stroke-width="2" stroke-linecap="square"/>
<path opacity="0.1" d="M1280 591.332L1226.67 643.999" stroke="#E1E1E1" stroke-opacity="0.08" stroke-width="2" stroke-linecap="square"/>
<path opacity="0.1" d="M1280 591.332L1333.33 643.999" stroke="#E1E1E1" stroke-opacity="0.08" stroke-width="2" stroke-linecap="square"/>
<path opacity="0.1" d="M1333.33 591.332L1386.67 643.999" stroke="#E1E1E1" stroke-opacity="0.08" stroke-width="2" stroke-linecap="square"/>
<path opacity="0.1" d="M1440 591.332L1386.67 643.999" stroke="#E1E1E1" stroke-opacity="0.08" stroke-width="2" stroke-linecap="square"/>
</svg>
