<svg width="17" height="16" viewBox="0 0 17 16" fill="none" xmlns="http://www.w3.org/2000/svg">
                     <path d="M1.8667 1.36719H3.20003L4.97337 9.64719C5.03842 9.95043 5.20715 10.2215 5.45051 10.4138C5.69387 10.606 5.99664 10.7074 6.3067 10.7005H12.8267C13.1301 10.7 13.4244 10.596 13.6607 10.4057C13.8971 10.2154 14.0615 9.95021 14.1267 9.65385L15.2267 4.70052H3.91337M6.50003 14.0005C6.50003 14.3687 6.20156 14.6672 5.83337 14.6672C5.46518 14.6672 5.1667 14.3687 5.1667 14.0005C5.1667 13.6323 5.46518 13.3339 5.83337 13.3339C6.20156 13.3339 6.50003 13.6323 6.50003 14.0005ZM13.8334 14.0005C13.8334 14.3687 13.5349 14.6672 13.1667 14.6672C12.7985 14.6672 12.5 14.3687 12.5 14.0005C12.5 13.6323 12.7985 13.3339 13.1667 13.3339C13.5349 13.3339 13.8334 13.6323 13.8334 14.0005Z" stroke="#FAFAFA" stroke-linecap="round" stroke-linejoin="round" />
                  </svg>