<svg width="16" height="16" viewBox="0 0 16 16" fill="none" xmlns="http://www.w3.org/2000/svg">
<g clip-path="url(#clip0_9941_69)">
<path d="M15.6976 7.293L8.69755 0.293C8.5023 0.09775 8.2463 0 7.99055 0C7.7348 0 7.4788 0.09775 7.28355 0.293L0.283552 7.293C-0.106948 7.6845 -0.0874484 8.297 0.303052 8.6875C0.694552 9.08 1.2668 9.13775 1.65855 8.746L2.00005 8.40425V15C2.00005 15.5527 2.4473 16 3.00005 16H7.00005V12H9.00005V16H13.0001C13.5528 16 14.0001 15.5527 14.0001 15V8.42375L14.2988 8.7225C14.6893 9.113 15.2861 9.078 15.6778 8.68725C16.0686 8.297 16.0891 7.6835 15.6976 7.293Z" fill="white"/>
</g>
<defs>
<clipPath id="clip0_9941_69">
<rect width="16" height="16" fill="white"/>
</clipPath>
</defs>
</svg>
