<svg width="33" height="32" viewBox="0 0 33 32" fill="none" xmlns="http://www.w3.org/2000/svg">
<path d="M7.33341 11.9997V22.6663M13.3334 11.9997V22.6663M20.0001 11.9997V22.6663M26.0001 11.9997V22.6663M4.66675 24.7997V25.8663C4.66675 26.6131 4.66675 26.9865 4.81207 27.2717C4.93991 27.5226 5.14388 27.7266 5.39476 27.8543C5.67997 27.9997 6.05335 27.9997 6.80008 27.9997H26.5334C27.2802 27.9997 27.6535 27.9997 27.9387 27.8543C28.1897 27.7266 28.3935 27.5226 28.5214 27.2717C28.6667 26.9865 28.6667 26.6131 28.6667 25.8663V24.7997C28.6667 24.053 28.6667 23.6795 28.5214 23.3943C28.3935 23.1435 28.1897 22.9395 27.9387 22.8117C27.6535 22.6663 27.2802 22.6663 26.5334 22.6663H6.80008C6.05335 22.6663 5.67997 22.6663 5.39476 22.8117C5.14388 22.9395 4.93991 23.1435 4.81207 23.3943C4.66675 23.6795 4.66675 24.053 4.66675 24.7997ZM16.2039 4.10254L6.33729 6.29514C5.74121 6.42759 5.44317 6.49383 5.22069 6.6541C5.02447 6.79547 4.87039 6.98757 4.77495 7.20979C4.66675 7.46173 4.66675 7.76705 4.66675 8.37766V9.86637C4.66675 10.6131 4.66675 10.9865 4.81207 11.2717C4.93991 11.5226 5.14388 11.7265 5.39476 11.8544C5.67997 11.9997 6.05335 11.9997 6.80008 11.9997H26.5334C27.2802 11.9997 27.6535 11.9997 27.9387 11.8544C28.1897 11.7265 28.3935 11.5226 28.5214 11.2717C28.6667 10.9865 28.6667 10.6131 28.6667 9.86637V8.37767C28.6667 7.76705 28.6667 7.46174 28.5585 7.20979C28.4631 6.98757 28.309 6.79547 28.1127 6.6541C27.8903 6.49383 27.5923 6.42759 26.9962 6.29514L17.1295 4.10254C16.9569 4.06417 16.8705 4.04498 16.7833 4.03733C16.7057 4.03053 16.6278 4.03053 16.5502 4.03733C16.463 4.04498 16.3766 4.06417 16.2039 4.10254Z" stroke="#FA9500" stroke-width="2" stroke-linecap="round" stroke-linejoin="round"/>
</svg>
