<svg width="33" height="32" viewBox="0 0 33 32" fill="none" xmlns="http://www.w3.org/2000/svg">
<path d="M25.3335 19L20.3335 24L12.3335 22L5.3335 17" stroke="#FA9500" stroke-width="2" stroke-linecap="round" stroke-linejoin="round"/>
<path d="M9.41846 8.82875L16.3335 7L23.2485 8.82875" stroke="#FA9500" stroke-width="2" stroke-linecap="round" stroke-linejoin="round"/>
<path d="M4.62984 7.55236L1.43984 13.9349C1.32128 14.1719 1.30169 14.4463 1.38537 14.6978C1.46905 14.9493 1.64914 15.1573 1.88609 15.2761L5.33359 16.9999L9.41859 8.82861L5.97234 7.10611C5.8549 7.04721 5.727 7.01204 5.59596 7.00259C5.46492 6.99314 5.3333 7.00961 5.20862 7.05105C5.08394 7.09249 4.96866 7.1581 4.86935 7.24412C4.77004 7.33013 4.68865 7.43488 4.62984 7.55236Z" stroke="#FA9500" stroke-width="2" stroke-linecap="round" stroke-linejoin="round"/>
<path d="M27.3335 16.9999L30.781 15.2761C31.018 15.1573 31.1981 14.9493 31.2818 14.6978C31.3654 14.4463 31.3458 14.1719 31.2273 13.9349L28.0373 7.55236C27.9785 7.43488 27.8971 7.33013 27.7978 7.24412C27.6985 7.1581 27.5832 7.09249 27.4585 7.05105C27.3338 7.00961 27.2022 6.99314 27.0712 7.00259C26.9401 7.01204 26.8122 7.04721 26.6948 7.10611L23.2485 8.82861L27.3335 16.9999Z" stroke="#FA9500" stroke-width="2" stroke-linecap="round" stroke-linejoin="round"/>
<path d="M23.3336 9H18.3336L12.6261 14.5363C12.52 14.6423 12.4391 14.7709 12.3894 14.9124C12.3397 15.054 12.3226 15.2049 12.3391 15.354C12.3557 15.5031 12.4056 15.6465 12.4851 15.7737C12.5647 15.9009 12.6718 16.0086 12.7986 16.0888C14.9873 17.4875 17.9586 17.3912 20.3336 15L25.3336 19L27.3336 17" stroke="#FA9500" stroke-width="2" stroke-linecap="round" stroke-linejoin="round"/>
<path d="M9.88199 1.91877L23.5306 28.9367" stroke="#FA9500" stroke-width="2" stroke-linecap="round"/>
</svg>
