<svg width="16" height="16" viewBox="0 0 16 16" fill="none" xmlns="http://www.w3.org/2000/svg">
<path d="M14.5886 14.1946L13.6809 13.2382C13.6434 13.1985 13.5917 13.1762 13.5373 13.1762C13.4828 13.1762 13.4309 13.1985 13.3934 13.2379L12.5744 14.1006C12.5369 14.1399 12.4849 14.1622 12.4305 14.1622C12.3761 14.1622 12.3243 14.1399 12.2869 14.1006L11.4681 13.2379C11.4309 13.1985 11.379 13.1762 11.3245 13.1762C11.2701 13.1762 11.2181 13.1985 11.1806 13.2379L10.3613 14.1006C10.3241 14.1399 10.2721 14.1622 10.2177 14.1622C10.1633 14.1622 10.1116 14.1399 10.0741 14.1006L9.74733 13.7565V11.1003C9.89471 11.1353 10.0475 11.1557 10.2056 11.1557C10.9374 11.1557 11.5746 10.7573 11.9165 10.1667C12.0196 10.1802 12.1239 10.1896 12.2306 10.1896C13.5513 10.1896 14.6217 9.11916 14.6217 7.79847C14.6217 6.80753 14.019 5.95747 13.1604 5.59484C13.3999 5.22222 13.5405 4.77984 13.5405 4.30403C13.5405 2.98331 12.4701 1.91291 11.1494 1.91291C10.8738 1.91291 10.6103 1.96194 10.3638 2.04763C10.197 0.890188 9.20387 0 8.00008 0C6.79627 0 5.80321 0.890187 5.63643 2.04791C5.38993 1.96194 5.12615 1.91291 4.85052 1.91291C3.5298 1.91291 2.4594 2.98334 2.4594 4.30403C2.4594 4.77984 2.60002 5.22222 2.8398 5.59484C1.98087 5.95775 1.37846 6.80753 1.37846 7.79847C1.37846 9.11919 2.44887 10.1896 3.76958 10.1896C3.87627 10.1896 3.98055 10.1802 4.08374 10.1667C4.42562 10.7573 5.0628 11.1557 5.79458 11.1557C5.95246 11.1557 6.10549 11.1353 6.25258 11.1003V13.7643L5.93302 14.1006C5.89558 14.1399 5.84387 14.1622 5.78943 14.1622C5.73499 14.1622 5.68302 14.1399 5.64583 14.1006L4.82596 13.2376C4.78877 13.1985 4.7368 13.1762 4.68236 13.1762C4.62793 13.1759 4.57621 13.1983 4.53877 13.2376L3.7184 14.1008C3.68093 14.1402 3.62893 14.1625 3.57452 14.1625C3.52037 14.1625 3.46837 14.1404 3.43093 14.1008L2.60943 13.2373C2.57227 13.198 2.51999 13.1759 2.46583 13.1759C2.41168 13.1759 2.35971 13.198 2.32224 13.2373L1.41187 14.1946C1.37687 14.2315 1.35718 14.2802 1.35718 14.3312V16H14.643V14.3312C14.643 14.2802 14.6233 14.2315 14.5886 14.1946ZM8.90858 13.2993L8.14718 14.1008C8.10974 14.1399 8.05802 14.1622 8.00358 14.1622C7.94915 14.1622 7.89715 14.1399 7.85999 14.1008L7.0913 13.292V11.4352C7.37152 11.5505 7.67812 11.6149 8.00008 11.6149C8.32177 11.6149 8.62837 11.5505 8.90858 11.4352V13.2993Z" fill="white"/>
</svg>
