<svg width="1360" height="110" viewBox="0 0 1360 110" fill="none" xmlns="http://www.w3.org/2000/svg">
<path d="M112.629 116.5V24.8948L139.997 13.4442V0.5L103 16.9292V111.153L112.629 116.5Z" fill="white" fill-opacity="0.33"/>
<path d="M167.371 116.5V24.8948L140.003 13.4442V0.5L177 16.9292V111.153L167.371 116.5Z" fill="white" fill-opacity="0.33"/>
<path fill-rule="evenodd" clip-rule="evenodd" d="M123 28.2074L140 20.5L157 28.2074V123.115L147.5 128.5V36.2308L140 33.027L132.5 36.2308V128.5L123 123.115V28.2074Z" fill="white" fill-opacity="0.33"/>
<path d="M292.629 116.5V24.8948L319.997 13.4442V0.5L283 16.9292V111.153L292.629 116.5Z" fill="white" fill-opacity="0.33"/>
<path d="M347.371 116.5V24.8948L320.003 13.4442V0.5L357 16.9292V111.153L347.371 116.5Z" fill="white" fill-opacity="0.33"/>
<path fill-rule="evenodd" clip-rule="evenodd" d="M303 28.2074L320 20.5L337 28.2074V123.115L327.5 128.5V36.2308L320 33.027L312.5 36.2308V128.5L303 123.115V28.2074Z" fill="white" fill-opacity="0.33"/>
<path d="M472.629 116.5V24.8948L499.997 13.4442V0.5L463 16.9292V111.153L472.629 116.5Z" fill="white" fill-opacity="0.33"/>
<path d="M527.371 116.5V24.8948L500.003 13.4442V0.5L537 16.9292V111.153L527.371 116.5Z" fill="white" fill-opacity="0.33"/>
<path fill-rule="evenodd" clip-rule="evenodd" d="M483 28.2074L500 20.5L517 28.2074V123.115L507.5 128.5V36.2308L500 33.027L492.5 36.2308V128.5L483 123.115V28.2074Z" fill="white" fill-opacity="0.33"/>
<path d="M652.629 116.5V24.8948L679.997 13.4442V0.5L643 16.9292V111.153L652.629 116.5Z" fill="white" fill-opacity="0.33"/>
<path d="M707.371 116.5V24.8948L680.003 13.4442V0.5L717 16.9292V111.153L707.371 116.5Z" fill="white" fill-opacity="0.33"/>
<path fill-rule="evenodd" clip-rule="evenodd" d="M663 28.2074L680 20.5L697 28.2074V123.115L687.5 128.5V36.2308L680 33.027L672.5 36.2308V128.5L663 123.115V28.2074Z" fill="white" fill-opacity="0.33"/>
<path d="M832.629 116.5V24.8948L859.997 13.4442V0.5L823 16.9292V111.153L832.629 116.5Z" fill="white" fill-opacity="0.33"/>
<path d="M887.371 116.5V24.8948L860.003 13.4442V0.5L897 16.9292V111.153L887.371 116.5Z" fill="white" fill-opacity="0.33"/>
<path fill-rule="evenodd" clip-rule="evenodd" d="M843 28.2074L860 20.5L877 28.2074V123.115L867.5 128.5V36.2308L860 33.027L852.5 36.2308V128.5L843 123.115V28.2074Z" fill="white" fill-opacity="0.33"/>
<path d="M1012.63 116.5V24.8948L1040 13.4442V0.5L1003 16.9292V111.153L1012.63 116.5Z" fill="white" fill-opacity="0.33"/>
<path d="M1067.37 116.5V24.8948L1040 13.4442V0.5L1077 16.9292V111.153L1067.37 116.5Z" fill="white" fill-opacity="0.33"/>
<path fill-rule="evenodd" clip-rule="evenodd" d="M1023 28.2074L1040 20.5L1057 28.2074V123.115L1047.5 128.5V36.2308L1040 33.027L1032.5 36.2308V128.5L1023 123.115V28.2074Z" fill="white" fill-opacity="0.33"/>
<path d="M1192.63 116.5V24.8948L1220 13.4442V0.5L1183 16.9292V111.153L1192.63 116.5Z" fill="white" fill-opacity="0.33"/>
<path d="M1247.37 116.5V24.8948L1220 13.4442V0.5L1257 16.9292V111.153L1247.37 116.5Z" fill="white" fill-opacity="0.33"/>
<path fill-rule="evenodd" clip-rule="evenodd" d="M1203 28.2074L1220 20.5L1237 28.2074V123.115L1227.5 128.5V36.2308L1220 33.027L1212.5 36.2308V128.5L1203 123.115V28.2074Z" fill="white" fill-opacity="0.33"/>
<path d="M22.6294 169V77.3948L49.997 65.9442V53L13 69.4292V163.653L22.6294 169Z" fill="white" fill-opacity="0.33"/>
<path d="M77.3706 169V77.3948L50.003 65.9442V53L87 69.4292V163.653L77.3706 169Z" fill="white" fill-opacity="0.33"/>
<path fill-rule="evenodd" clip-rule="evenodd" d="M33 80.7084L50 73.001L67 80.7084V175.616L57.5 181.001V88.7318L50 85.528L42.5 88.7318V181.001L33 175.616V80.7084Z" fill="white" fill-opacity="0.33"/>
<path d="M202.629 169V77.3948L229.997 65.9442V53L193 69.4292V163.653L202.629 169Z" fill="white" fill-opacity="0.33"/>
<path d="M257.371 169V77.3948L230.003 65.9442V53L267 69.4292V163.653L257.371 169Z" fill="white" fill-opacity="0.33"/>
<path fill-rule="evenodd" clip-rule="evenodd" d="M213 80.7084L230 73.001L247 80.7084V175.616L237.5 181.001V88.7318L230 85.528L222.5 88.7318V181.001L213 175.616V80.7084Z" fill="white" fill-opacity="0.33"/>
<path d="M382.629 169V77.3948L409.997 65.9442V53L373 69.4292V163.653L382.629 169Z" fill="white" fill-opacity="0.33"/>
<path d="M437.371 169V77.3948L410.003 65.9442V53L447 69.4292V163.653L437.371 169Z" fill="white" fill-opacity="0.33"/>
<path fill-rule="evenodd" clip-rule="evenodd" d="M393 80.7084L410 73.001L427 80.7084V175.616L417.5 181.001V88.7318L410 85.528L402.5 88.7318V181.001L393 175.616V80.7084Z" fill="white" fill-opacity="0.33"/>
<path d="M562.629 169V77.3948L589.997 65.9442V53L553 69.4292V163.653L562.629 169Z" fill="white" fill-opacity="0.33"/>
<path d="M617.371 169V77.3948L590.003 65.9442V53L627 69.4292V163.653L617.371 169Z" fill="white" fill-opacity="0.33"/>
<path fill-rule="evenodd" clip-rule="evenodd" d="M573 80.7084L590 73.001L607 80.7084V175.616L597.5 181.001V88.7318L590 85.528L582.5 88.7318V181.001L573 175.616V80.7084Z" fill="white" fill-opacity="0.33"/>
<path d="M742.629 169V77.3948L769.997 65.9442V53L733 69.4292V163.653L742.629 169Z" fill="white" fill-opacity="0.33"/>
<path d="M797.371 169V77.3948L770.003 65.9442V53L807 69.4292V163.653L797.371 169Z" fill="white" fill-opacity="0.33"/>
<path fill-rule="evenodd" clip-rule="evenodd" d="M753 80.7084L770 73.001L787 80.7084V175.616L777.5 181.001V88.7318L770 85.528L762.5 88.7318V181.001L753 175.616V80.7084Z" fill="white" fill-opacity="0.33"/>
<path d="M922.629 169V77.3948L949.997 65.9442V53L913 69.4292V163.653L922.629 169Z" fill="white" fill-opacity="0.33"/>
<path d="M977.371 169V77.3948L950.003 65.9442V53L987 69.4292V163.653L977.371 169Z" fill="white" fill-opacity="0.33"/>
<path fill-rule="evenodd" clip-rule="evenodd" d="M933 80.7084L950 73.001L967 80.7084V175.616L957.5 181.001V88.7318L950 85.528L942.5 88.7318V181.001L933 175.616V80.7084Z" fill="white" fill-opacity="0.33"/>
<path d="M1102.63 169V77.3948L1130 65.9442V53L1093 69.4292V163.653L1102.63 169Z" fill="white" fill-opacity="0.33"/>
<path d="M1157.37 169V77.3948L1130 65.9442V53L1167 69.4292V163.653L1157.37 169Z" fill="white" fill-opacity="0.33"/>
<path fill-rule="evenodd" clip-rule="evenodd" d="M1113 80.7084L1130 73.001L1147 80.7084V175.616L1137.5 181.001V88.7318L1130 85.528L1122.5 88.7318V181.001L1113 175.616V80.7084Z" fill="white" fill-opacity="0.33"/>
<path d="M1282.63 169V77.3948L1310 65.9442V53L1273 69.4292V163.653L1282.63 169Z" fill="white" fill-opacity="0.33"/>
<path d="M1337.37 169V77.3948L1310 65.9442V53L1347 69.4292V163.653L1337.37 169Z" fill="white" fill-opacity="0.33"/>
<path fill-rule="evenodd" clip-rule="evenodd" d="M1293 80.7084L1310 73.001L1327 80.7084V175.616L1317.5 181.001V88.7318L1310 85.528L1302.5 88.7318V181.001L1293 175.616V80.7084Z" fill="white" fill-opacity="0.33"/>
</svg>
