<svg width="16" height="16" viewBox="0 0 16 16" fill="none" xmlns="http://www.w3.org/2000/svg">
<path d="M7.50928 12.4C7.6124 12.5594 7.79365 12.6656 7.9999 12.6656C8.20615 12.6656 8.3874 12.5594 8.49365 12.4L11.9374 7.08125C12.3999 6.36563 12.6687 5.57812 12.6687 4.66563C12.6655 2.02813 10.5937 0 7.9999 0C5.40615 0 3.33428 2.02813 3.33428 4.66563C3.33428 5.57812 3.60303 6.36563 4.06553 7.08125L7.50928 12.4ZM7.9999 2C9.47178 2 10.6655 3.19375 10.6655 4.66563C10.6655 6.1375 9.47178 7.33125 7.9999 7.33125C6.52803 7.33125 5.33428 6.1375 5.33428 4.66563C5.33428 3.19375 6.52803 2 7.9999 2ZM11.4187 10.1094L7.9999 14.6656L4.58115 10.1094C3.4124 10.7219 2.66553 11.6375 2.66553 12.6656C2.66553 14.5062 5.05303 16 7.9999 16C10.9468 16 13.3343 14.5062 13.3343 12.6656C13.3343 11.6375 12.5874 10.7219 11.4187 10.1094Z" fill="white"/>
</svg>
