<svg width="20" height="20" viewBox="0 0 20 20" fill="none" xmlns="http://www.w3.org/2000/svg">
<path d="M5.625 8.125C5.625 7.46196 5.88839 6.82607 6.35723 6.35723C6.82607 5.88839 7.46196 5.625 8.125 5.625L9.375 8.125L8.4125 9.56797C8.7943 10.4803 9.51973 11.2057 10.432 11.5875L11.875 10.625L14.375 11.875C14.375 12.538 14.1116 13.1739 13.6428 13.6428C13.1739 14.1116 12.538 14.375 11.875 14.375C10.2174 14.375 8.62769 13.7165 7.45558 12.5444C6.28348 11.3723 5.625 9.7826 5.625 8.125Z" stroke="#E4E4E7" stroke-width="1.5" stroke-linecap="round" stroke-linejoin="round"/>
<path d="M6.24455 16.4932C7.81997 17.405 9.67321 17.7127 11.4588 17.359C13.2443 17.0053 14.8403 16.0143 15.9491 14.5708C17.058 13.1273 17.604 11.3298 17.4855 9.51341C17.3669 7.69704 16.5918 5.98577 15.3047 4.69866C14.0176 3.41156 12.3063 2.63646 10.49 2.51789C8.67358 2.39932 6.87607 2.94537 5.43256 4.05422C3.98904 5.16308 2.99806 6.75906 2.64436 8.54461C2.29066 10.3302 2.59839 12.1834 3.51018 13.7588L2.53283 16.6768C2.49611 16.7869 2.49078 16.9051 2.51744 17.0181C2.5441 17.131 2.60171 17.2344 2.68379 17.3165C2.76588 17.3985 2.8692 17.4561 2.98218 17.4828C3.09516 17.5095 3.21334 17.5041 3.32346 17.4674L6.24455 16.4932Z" stroke="#E4E4E7" stroke-width="1.5" stroke-linecap="round" stroke-linejoin="round"/>
</svg>
