<svg width="25" height="24" viewBox="0 0 25 24" fill="none" xmlns="http://www.w3.org/2000/svg">
<path d="M12.3335 0.5C18.6848 0.5 23.8335 5.64873 23.8335 12C23.8335 18.3513 18.6848 23.5 12.3335 23.5C5.98222 23.5 0.833496 18.3513 0.833496 12C0.833496 5.64873 5.98222 0.5 12.3335 0.5Z" fill="white"/>
<path d="M12.3335 0.5C18.6848 0.5 23.8335 5.64873 23.8335 12C23.8335 18.3513 18.6848 23.5 12.3335 23.5C5.98222 23.5 0.833496 18.3513 0.833496 12C0.833496 5.64873 5.98222 0.5 12.3335 0.5Z" stroke="#EF4444"/>
<path d="M18.3335 6L6.3335 18M6.3335 6L18.3335 18" stroke="#EF4444" stroke-width="2" stroke-linecap="round" stroke-linejoin="round"/>
</svg>
